<?xml version="1.0" encoding="UTF-8" standalone="no"?>
<svg
   version="1.0"
   width="251.78299pt"
   height="185.82346pt"
   viewBox="0 0 251.78299 185.82346"
   preserveAspectRatio="xMidYMid meet"
   id="svg6"
   sodipodi:docname="009f12d2014eba96e59fbf48a70e932e.svg"
   xmlns:inkscape="http://www.inkscape.org/namespaces/inkscape"
   xmlns:sodipodi="http://sodipodi.sourceforge.net/DTD/sodipodi-0.dtd"
   xmlns="http://www.w3.org/2000/svg"
   xmlns:svg="http://www.w3.org/2000/svg">
  <defs
     id="defs10" />
  <sodipodi:namedview
     id="namedview8"
     pagecolor="#ffffff"
     bordercolor="#666666"
     borderopacity="1.0"
     inkscape:pageshadow="2"
     inkscape:pageopacity="0.0"
     inkscape:pagecheckerboard="0"
     inkscape:document-units="pt" />
  <g
     transform="matrix(0.1,0,0,-0.1,-65,201.82345)"
     fill="#000"
     stroke="none"
     id="g4">
    <path
       d="M 1763,1993 C 1752,1978 1596,1675 1415,1320 912,331 914,334 849,276 804,235 779,223 703,208 c -41,-8 -53,-15 -53,-29 0,-18 15,-19 336,-19 311,0 335,1 332,17 -2,13 -22,20 -82,29 -79,13 -109,26 -91,42 6,5 44,35 85,68 41,32 109,88 150,124 41,37 158,138 260,225 102,87 224,194 272,237 48,43 94,78 101,78 13,0 263,-498 293,-583 41,-115 3,-168 -136,-192 -46,-7 -65,-15 -65,-25 0,-13 56,-15 419,-15 327,0 420,3 423,12 5,15 4,15 -90,37 -87,20 -145,60 -197,138 -45,67 -420,809 -420,830 0,14 98,96 140,118 13,7 71,16 127,20 123,8 98,-8 379,235 294,255 291,252 277,265 -7,8 -17,9 -26,4 -8,-5 -108,-90 -221,-189 -222,-193 -266,-224 -286,-200 -8,10 -8,19 0,34 6,11 106,106 223,211 116,105 214,196 215,201 8,22 -30,5 -76,-33 -27,-24 -110,-95 -183,-158 -220,-188 -237,-202 -262,-198 -32,5 -33,36 0,70 37,39 201,182 331,288 56,46 101,88 99,94 -8,24 -31,12 -125,-66 -55,-46 -130,-108 -168,-138 -37,-30 -98,-81 -135,-112 -49,-42 -76,-58 -97,-58 -33,0 -47,20 -29,43 16,20 175,152 327,272 158,124 146,113 133,126 -8,8 -45,-15 -140,-87 -351,-268 -464,-358 -474,-376 -7,-12 -8,-45 -4,-87 3,-36 2,-77 -3,-91 -13,-33 -60,-82 -74,-78 -6,2 -92,166 -192,363 -115,229 -187,361 -197,363 -10,2 -26,-9 -36,-25 z m 76,-638 c 62,-123 111,-231 109,-240 -4,-17 -788,-609 -796,-600 -6,6 62,144 293,595 235,456 255,493 269,481 7,-6 63,-112 125,-236 z"
       id="path2" />
  </g>
</svg>
