<?xml version="1.0" standalone="no"?>
<!DOCTYPE svg PUBLIC "-//W3C//DTD SVG 20010904//EN"
 "http://www.w3.org/TR/2001/REC-SVG-20010904/DTD/svg10.dtd">
<svg version="1.0" xmlns="http://www.w3.org/2000/svg"
 width="512.000000pt" height="512.000000pt" viewBox="0 0 512.000000 512.000000"
 preserveAspectRatio="xMidYMid meet">
<metadata>
Created by potrace 1.16, written by Peter Selinger 2001-2019
</metadata>
<g transform="translate(0.000000,512.000000) scale(0.100000,-0.100000)"
fill="#000000" stroke="none">
<path d="M1884 4809 c-45 -13 -76 -51 -81 -101 -4 -37 1 -52 36 -109 100 -165
118 -359 48 -519 -11 -25 -45 -83 -75 -130 -60 -93 -109 -206 -127 -290 l-11
-55 -150 -22 c-844 -122 -1416 -390 -1508 -707 -19 -64 -21 -239 -5 -384 57
-529 302 -1034 689 -1423 292 -293 624 -500 1008 -628 722 -241 1534 -161
2177 214 619 362 1054 952 1189 1615 48 238 61 500 30 606 -89 308 -614 563
-1429 694 -99 15 -229 33 -290 40 -153 15 -175 19 -175 33 0 21 56 131 93 183
136 191 182 447 122 671 -41 154 -119 286 -185 313 -68 28 -149 -25 -157 -102
-4 -36 1 -52 32 -103 71 -116 95 -195 95 -310 0 -123 -27 -205 -110 -335 -58
-90 -108 -193 -124 -258 l-12 -47 -186 0 c-103 0 -189 3 -193 7 -10 9 27 87
73 155 142 210 188 454 127 680 -40 150 -115 279 -180 310 -69 33 -153 -18
-162 -99 -4 -36 1 -52 32 -103 70 -114 94 -194 95 -307 0 -129 -24 -197 -137
-383 -50 -82 -82 -156 -108 -251 -2 -7 -55 -14 -142 -18 -76 -3 -164 -9 -195
-13 -46 -4 -58 -3 -58 8 0 22 56 134 98 196 134 197 175 429 118 655 -38 151
-117 287 -181 314 -38 16 -38 16 -81 3z m431 -1436 c28 -161 120 -354 186
-388 61 -32 140 -8 165 50 21 52 18 67 -41 183 -30 59 -59 126 -64 150 l-9 42
199 0 198 0 6 -37 c27 -158 121 -355 186 -389 87 -45 189 22 176 115 -3 20
-23 68 -46 106 -37 62 -79 171 -69 179 5 5 305 -30 420 -49 739 -119 1255
-357 1258 -580 1 -110 -164 -249 -419 -355 l-74 -30 -96 29 c-312 96 -669 159
-1146 203 -189 17 -981 17 -1170 0 -477 -44 -834 -107 -1146 -203 l-96 -29
-74 30 c-255 106 -420 245 -419 355 2 204 458 433 1105 554 105 19 305 51 324
51 5 0 12 -19 16 -42 19 -111 121 -305 176 -334 80 -41 178 15 179 103 0 10
-24 68 -55 128 -31 61 -58 124 -61 141 l-6 32 108 6 c60 4 123 8 139 10 17 1
56 4 87 4 l57 2 6 -37z m865 -1018 c290 -24 762 -98 743 -116 -5 -3 -57 -16
-118 -28 -401 -76 -741 -105 -1245 -105 -504 0 -844 29 -1245 105 -60 12 -113
25 -118 28 -9 9 176 45 390 76 136 20 335 39 623 59 131 9 796 -4 970 -19z
m-2860 -55 c61 -44 280 -141 424 -189 357 -119 704 -183 1261 -233 187 -17
923 -17 1110 0 579 52 950 123 1310 249 106 37 327 139 375 173 15 11 30 20
33 20 3 0 -5 -39 -18 -87 -140 -545 -501 -1026 -1003 -1336 -520 -322 -1177
-430 -1782 -292 -784 178 -1413 724 -1671 1450 -34 97 -80 265 -72 265 3 0 18
-9 33 -20z" fill = "#c9b12da7"/>
</g>
</svg>
