<?xml version="1.0" standalone="no"?>
<!DOCTYPE svg PUBLIC "-//W3C//DTD SVG 20010904//EN"
 "http://www.w3.org/TR/2001/REC-SVG-20010904/DTD/svg10.dtd">
<svg version="1.0" xmlns="http://www.w3.org/2000/svg"
 width="555.000000pt" height="449.000000pt" viewBox="0 0 555.000000 449.000000"
 preserveAspectRatio="xMidYMid meet">
<metadata>
Created by potrace 1.16, written by Peter Selinger 2001-2019
</metadata>
<g transform="translate(0.000000,449.000000) scale(0.100000,-0.100000)"
fill="#000000" stroke="none">
<path d="M2640 4204 c-209 -20 -397 -63 -570 -131 -487 -192 -859 -557 -1092
-1068 -42 -94 -92 -245 -108 -330 -6 -33 -14 -67 -17 -75 -3 -8 -7 -28 -9 -43
-2 -16 -8 -36 -14 -46 -10 -19 -25 -134 -35 -271 -14 -175 26 -444 96 -655
132 -394 387 -724 735 -951 364 -236 812 -368 1193 -351 240 11 409 50 664
153 320 129 603 329 795 560 12 15 22 31 22 36 0 5 5 6 10 3 6 -4 10 -3 8 2
-1 4 20 30 46 57 26 27 45 55 42 62 -3 8 0 16 6 20 7 4 8 3 4 -4 -4 -7 -5 -12
-3 -12 6 0 105 154 114 176 5 13 3 15 -7 9 -9 -5 -11 -4 -6 4 4 6 11 9 15 6
10 -6 92 167 125 265 79 235 109 409 110 640 1 158 -9 288 -21 276 -3 -3 -6
-19 -5 -35 0 -22 -3 -28 -14 -24 -10 4 -13 -1 -11 -16 2 -11 6 -24 10 -27 14
-15 6 -25 -14 -19 -18 6 -19 5 -10 -13 6 -12 7 -23 2 -26 -5 -3 -11 0 -14 8
-6 14 -164 72 -173 63 -3 -3 3 -13 13 -23 19 -19 43 -66 43 -84 0 -5 -7 -7
-15 -4 -9 4 -15 0 -15 -10 0 -9 5 -16 11 -16 6 0 8 -8 4 -19 -4 -13 0 -20 15
-24 11 -3 20 -13 20 -22 0 -14 -3 -15 -14 -6 -11 10 -16 9 -23 -3 -6 -11 -13
-12 -23 -6 -10 7 -11 10 -2 10 6 0 12 5 12 10 0 13 -37 13 -45 0 -3 -5 0 -10
7 -10 8 -1 6 -6 -5 -15 -26 -19 -14 -51 25 -64 16 -6 34 -8 39 -5 17 10 9 -12
-11 -34 -26 -27 -27 -27 -26 1 1 14 -4 21 -13 19 -8 -2 -17 2 -22 9 -5 8 -11
4 -19 -11 -11 -20 -10 -25 5 -36 20 -15 12 -54 -12 -54 -11 0 -13 4 -5 13 12
15 -1 52 -25 66 -17 10 -17 10 0 11 9 0 23 12 30 27 10 22 9 28 -5 36 -14 10
-13 13 8 30 13 10 24 25 24 33 0 8 4 14 8 14 4 0 8 9 9 20 1 13 -4 20 -16 20
-25 0 -44 26 -38 50 3 11 0 23 -5 27 -7 4 -5 11 6 19 27 19 2 26 -48 13 -26
-6 -46 -13 -46 -15 0 -1 4 -14 10 -29 9 -24 8 -25 -10 -15 -11 6 -20 21 -20
33 -1 22 -1 22 -24 -4 -12 -14 -29 -29 -37 -32 -9 -3 -5 -6 9 -6 26 -1 26 -2
10 -36 -6 -14 -18 -25 -25 -25 -8 0 -13 -6 -10 -12 2 -7 -3 -25 -11 -40 -13
-22 -24 -28 -49 -28 -21 0 -33 5 -33 14 0 7 -6 19 -14 25 -11 9 -11 17 -3 35
7 14 16 22 21 19 5 -4 6 -1 2 5 -10 16 -34 15 -51 -2 -10 -10 -11 -16 -2 -25
18 -18 -6 -12 -30 8 -22 19 -33 48 -13 36 6 -3 10 -1 10 6 0 8 4 8 15 -1 8 -7
15 -10 15 -6 0 9 -39 46 -49 46 -5 0 -14 6 -20 14 -7 8 -24 17 -39 21 -32 8
-102 77 -102 101 0 16 -1 16 -18 1 -10 -10 -21 -14 -24 -11 -9 9 24 44 42 44
28 0 42 37 30 75 -6 19 -17 34 -23 32 -14 -2 -14 4 -3 55 7 33 11 37 44 40 19
2 37 9 39 15 3 9 -7 11 -38 7 -32 -5 -45 -2 -54 10 -11 14 -13 13 -23 -9 -14
-29 -27 -32 -38 -7 -13 30 -16 82 -4 82 6 0 8 10 4 25 -4 16 -2 25 5 25 9 0 9
5 1 20 -9 17 -6 25 19 51 30 30 51 31 51 3 0 -15 27 -19 55 -8 13 5 14 8 3 15
-8 5 -9 9 -2 9 6 0 17 -7 24 -15 7 -9 29 -15 51 -15 22 0 39 -4 39 -10 0 -5 6
-10 13 -10 14 0 107 -91 107 -105 0 -5 -5 -4 -12 3 -16 16 -29 15 -22 -2 3 -9
-3 -17 -15 -21 -24 -7 -26 -16 -9 -33 18 -18 49 -15 42 3 -4 9 0 15 10 15 18
0 22 -35 6 -45 -5 -3 -10 -14 -10 -25 0 -15 -10 -19 -52 -22 -56 -5 -85 5 -49
17 12 3 26 16 32 28 10 18 8 24 -17 43 -15 13 -31 21 -33 18 -3 -3 1 -9 8 -13
11 -7 9 -11 -5 -19 -14 -8 -23 -7 -35 4 -14 13 -18 13 -29 -1 -10 -12 -10 -15
4 -15 19 0 49 -32 52 -55 3 -23 24 -45 43 -45 9 0 33 -9 52 -19 l36 -20 53 49
53 49 -21 26 c-11 14 -24 39 -27 55 -9 40 -63 99 -75 81 -6 -10 -10 -8 -15 8
-9 29 -2 35 24 21 18 -9 23 -8 30 12 l8 22 13 -24 c7 -14 23 -34 35 -46 l22
-20 32 27 c18 15 32 35 31 45 -4 34 0 36 33 15 43 -26 79 -19 71 15 -8 30 9
31 36 4 12 -12 25 -18 30 -15 6 4 10 1 10 -5 0 -8 9 -10 23 -6 20 5 23 2 23
-17 -1 -15 5 -22 19 -23 11 -1 24 -2 30 -3 5 -1 -1 -8 -13 -17 -31 -21 -29
-48 3 -42 13 3 23 2 22 -1 -1 -3 3 -7 8 -9 54 -16 -78 281 -221 501 -81 123
-339 387 -479 490 -92 67 -268 177 -284 177 -5 0 -7 -10 -3 -22 3 -14 1 -19
-6 -14 -6 3 -13 2 -16 -3 -3 -5 5 -12 18 -15 13 -3 31 -17 40 -31 15 -23 15
-26 1 -31 -12 -5 -13 -9 -4 -20 9 -12 8 -17 -6 -28 -14 -10 -15 -15 -5 -21 8
-5 18 -2 25 8 17 23 35 21 73 -6 31 -24 31 -24 12 -44 -10 -12 -16 -23 -14
-26 8 -8 -34 -47 -50 -47 -19 0 -29 -17 -16 -25 16 -10 12 -28 -5 -21 -8 3
-15 1 -15 -5 0 -6 -7 -9 -15 -5 -8 3 -15 2 -15 -3 0 -5 -9 -11 -19 -14 -15 -3
-20 2 -24 22 -7 33 1 41 18 18 11 -15 17 -16 34 -7 12 6 21 17 21 25 0 7 8 16
19 20 29 9 51 38 41 55 -7 11 -11 8 -19 -14 -10 -26 -12 -27 -28 -10 -10 9
-18 22 -18 28 0 6 -6 18 -12 26 -7 8 -25 30 -39 48 -27 34 -47 30 -37 -8 4
-14 -4 -19 -35 -24 -22 -3 -42 -12 -45 -18 -3 -10 -7 -10 -20 1 -20 16 -22 47
-4 54 10 4 10 6 0 6 -18 1 -16 21 2 21 8 0 15 7 15 15 0 8 -4 15 -9 15 -5 0
-12 7 -15 16 -3 8 -2 12 4 9 6 -3 10 -2 10 4 0 5 -9 13 -21 16 -15 5 -19 14
-17 37 3 27 -1 31 -22 34 -14 1 -46 6 -72 10 -33 4 -48 3 -48 -4 0 -20 -29 -1
-32 21 -3 19 -8 22 -43 19 -22 -2 -45 -8 -51 -13 -5 -4 -21 -5 -33 -2 -17 4
-22 2 -19 -7 2 -8 -10 -21 -31 -32 -34 -17 -37 -17 -48 -1 -7 9 -13 23 -13 30
0 12 -18 17 -37 11 -5 -2 -7 -12 -5 -24 1 -11 -6 -28 -16 -37 -17 -16 -19 -15
-32 18 -8 19 -17 35 -22 35 -15 0 -23 -5 -20 -13 1 -5 -11 -24 -28 -43 -24
-28 -28 -39 -20 -53 8 -16 7 -18 -10 -14 -11 3 -23 9 -26 14 -3 5 3 6 13 2 15
-5 16 -3 6 8 -20 21 -15 37 15 51 18 9 28 22 30 42 3 26 6 28 34 22 32 -6 67
10 99 45 11 13 25 17 50 14 28 -4 36 -1 44 18 6 12 16 22 24 22 8 0 16 5 18
11 9 27 -375 54 -547 38z m763 -204 c20 0 38 -56 36 -109 -3 -56 -3 -56 -95
-52 -23 2 -45 -2 -49 -8 -3 -6 -11 -9 -16 -5 -5 3 -16 1 -24 -6 -7 -6 -19 -10
-27 -9 -25 4 -65 -12 -65 -27 0 -8 6 -14 14 -14 7 0 12 5 11 11 -2 6 9 13 25
14 40 5 33 -7 -21 -32 -30 -15 -37 -21 -20 -18 16 3 28 0 31 -8 3 -9 7 -9 20
2 9 7 14 17 11 22 -3 5 0 9 5 9 6 0 11 -7 11 -15 0 -8 -6 -15 -12 -15 -10 0
-10 -2 0 -8 8 -6 -3 -12 -33 -19 -25 -6 -45 -6 -45 -2 0 5 8 9 18 10 12 0 13
2 3 6 -8 3 -20 -2 -27 -12 -8 -10 -20 -15 -29 -11 -9 3 -29 -1 -44 -9 -16 -8
-31 -12 -34 -9 -3 3 -8 1 -12 -5 -3 -6 -1 -11 5 -11 6 0 8 -5 4 -11 -4 -8 1
-9 17 -4 19 5 21 4 9 -4 -8 -6 -24 -11 -35 -11 -18 -1 -19 -1 -2 -11 9 -5 23
-7 30 -3 6 4 2 -3 -10 -15 -41 -39 -28 -52 25 -25 32 15 46 39 17 28 -9 -4
-15 0 -15 8 0 15 48 17 69 3 6 -3 11 -1 11 5 0 7 -9 14 -20 17 -11 3 -20 10
-20 15 0 5 5 6 11 2 6 -3 15 0 20 7 4 7 11 10 16 6 4 -5 1 -12 -7 -17 -13 -8
-12 -10 2 -10 11 0 20 10 24 25 7 27 24 34 24 10 0 -8 5 -14 11 -12 6 1 14 -5
17 -13 2 -8 1 -12 -3 -8 -10 10 -38 -19 -30 -32 7 -12 -73 -89 -93 -90 -24 0
-121 -86 -154 -135 -18 -28 -41 -58 -51 -68 -10 -10 -25 -33 -33 -50 -14 -31
-14 -29 -10 40 4 56 1 73 -10 77 -8 3 -14 15 -14 26 0 13 -7 20 -20 20 -11 0
-20 5 -20 11 0 7 -8 18 -17 25 -17 12 -17 15 -1 44 17 30 17 32 -1 58 -15 23
-17 38 -11 92 6 52 7 57 8 23 2 -39 4 -42 35 -45 53 -5 99 24 61 39 -15 5 -15
7 0 15 9 5 14 13 11 18 -3 5 7 16 23 24 23 12 28 21 25 39 -3 14 2 29 12 37
14 12 15 10 6 -14 -13 -33 -9 -33 45 5 69 47 164 99 182 99 10 0 55 13 102 28
78 25 85 29 82 51 -3 19 0 22 13 17 9 -3 22 -6 28 -6z m-1213 -18 c0 -5 -12
-13 -27 -19 l-28 -10 40 -7 c22 -4 50 -11 62 -16 15 -6 36 -5 64 5 23 9 72 18
110 21 60 6 68 5 80 -13 10 -17 17 -19 43 -12 50 15 84 11 96 -10 7 -14 6 -21
-3 -24 -6 -3 -2 -6 10 -6 17 -1 24 -9 28 -35 4 -19 4 -44 0 -56 -4 -11 -2 -26
3 -33 19 -25 21 -47 4 -64 -12 -12 -16 -31 -15 -69 1 -44 -1 -53 -20 -62 l-22
-11 22 0 c26 -1 37 -16 26 -33 -4 -7 -9 -33 -10 -57 -3 -34 1 -48 17 -63 21
-20 28 -82 10 -93 -15 -9 -12 -36 7 -57 16 -18 16 -19 -3 -13 -19 7 -19 6 0
-9 11 -9 31 -16 45 -16 14 0 33 -5 41 -10 12 -8 9 -10 -13 -10 -32 0 -97 -25
-97 -37 0 -5 9 -14 20 -21 35 -22 44 -61 23 -107 -10 -22 -28 -49 -40 -60 -12
-11 -25 -31 -28 -44 -6 -21 -5 -23 15 -18 30 8 60 -9 60 -33 0 -10 5 -22 10
-25 7 -4 1 -17 -14 -32 -21 -21 -29 -23 -41 -13 -9 8 -24 9 -42 4 -31 -8 -30
-8 -58 1 -18 6 -18 5 -2 -5 9 -6 17 -23 17 -40 0 -15 5 -30 12 -32 8 -3 8 -9
0 -24 -11 -18 -11 -18 -12 4 0 17 -6 22 -28 22 -40 0 -56 -19 -36 -41 14 -16
14 -18 -5 -24 -28 -9 -16 -27 14 -23 13 2 23 -1 22 -5 -1 -5 6 -13 17 -19 14
-8 15 -12 6 -18 -9 -6 -5 -16 17 -37 16 -16 28 -34 26 -40 -2 -6 6 -8 23 -5
l26 5 -31 26 c-26 22 -29 29 -19 40 10 11 10 12 1 7 -7 -4 -13 -3 -13 3 0 5
-3 18 -6 28 -5 17 -5 17 9 1 8 -10 19 -18 24 -18 6 0 8 -12 5 -27 -4 -22 -2
-25 12 -20 10 4 15 3 11 -4 -4 -5 -1 -16 5 -24 7 -8 10 -15 7 -15 -3 0 1 -12
8 -27 13 -25 13 -29 -4 -43 -24 -19 -45 -60 -31 -60 5 0 10 -7 10 -15 0 -8 -4
-15 -10 -15 -5 0 -10 -9 -10 -21 0 -13 4 -18 12 -13 7 4 8 3 4 -4 -4 -6 -12
-9 -19 -6 -14 5 -40 -33 -32 -46 4 -6 13 -10 21 -10 9 0 14 -6 11 -12 -5 -14
-7 -14 -49 -4 -37 8 -51 -19 -42 -80 5 -36 10 -44 23 -39 9 4 28 9 44 12 29 6
35 18 15 26 -7 3 -3 6 9 6 25 1 38 16 23 26 -12 7 -4 25 11 25 5 0 9 -7 9 -15
0 -21 24 -19 45 5 10 11 26 20 36 20 10 0 21 5 25 12 5 8 2 9 -9 5 -9 -3 -19
-2 -22 3 -4 6 0 10 7 10 10 0 9 3 -1 9 -10 7 -19 4 -28 -7 -11 -15 -12 -15
-13 5 0 17 8 23 40 28 27 5 46 3 56 -6 25 -20 40 4 20 32 -9 13 -16 28 -16 34
0 5 5 3 10 -5 10 -16 12 -11 14 45 1 11 9 21 19 23 13 3 15 -1 10 -15 -6 -16
-5 -16 10 -4 9 7 14 17 11 22 -3 5 2 9 11 9 9 0 21 -13 26 -30 6 -16 14 -30
17 -31 47 -7 79 -4 75 8 -3 7 0 13 7 13 6 0 8 5 4 11 -4 7 -22 9 -49 4 -44 -6
-44 -6 -32 19 8 17 15 22 23 15 8 -7 14 -6 19 1 8 13 25 13 25 -1 0 -5 -4 -7
-10 -4 -5 3 -10 2 -10 -2 0 -5 16 -9 36 -10 20 -1 40 -6 43 -11 4 -6 28 -12
55 -13 27 -2 55 -9 62 -17 8 -7 19 -10 26 -6 8 5 9 2 5 -10 -5 -13 -3 -15 12
-7 10 6 21 7 25 4 3 -3 6 -1 6 5 0 6 -8 15 -17 21 -10 5 -14 13 -10 17 4 4 14
-1 22 -12 12 -15 16 -16 23 -6 7 10 11 8 17 -10 4 -12 6 -30 5 -37 -2 -13 0
-13 16 -1 15 14 16 13 10 -10 -4 -14 -11 -34 -15 -45 -28 -69 -33 -96 -20
-111 12 -14 9 -14 -25 0 -21 9 -40 16 -42 16 -2 0 -4 5 -4 10 0 6 7 10 15 10
8 0 15 5 15 10 0 6 -3 10 -7 10 -11 0 -67 -49 -62 -54 2 -2 14 -8 26 -15 14
-7 20 -17 17 -26 -5 -11 -1 -14 12 -9 15 4 16 4 5 -4 -19 -14 -6 -90 20 -118
17 -19 18 -22 5 -27 -9 -4 -26 -2 -38 3 -13 5 -18 9 -12 9 28 2 23 32 -9 51
-17 11 -35 20 -39 20 -16 0 -5 -76 14 -97 26 -28 14 -47 -23 -39 -31 6 -48 -9
-30 -27 16 -16 14 -30 -4 -24 -8 4 -17 2 -20 -3 -4 -6 -15 -10 -26 -10 -23 0
-23 1 -2 -40 9 -19 18 -55 21 -81 3 -36 8 -46 19 -42 9 4 13 18 11 43 -2 40
32 92 76 117 30 18 34 16 41 -16 7 -31 79 -121 98 -121 6 0 19 -7 29 -17 11
-10 18 -12 18 -4 0 6 6 11 13 10 6 -1 37 10 67 24 64 31 127 35 146 10 12 -17
13 -17 19 0 7 18 45 24 45 7 0 -5 9 -10 19 -10 11 0 28 -13 38 -30 9 -16 23
-30 30 -30 7 0 15 -11 19 -24 3 -14 18 -29 33 -36 22 -9 36 -7 76 10 33 14 52
17 59 10 5 -5 20 -10 32 -10 29 0 62 -42 77 -97 6 -24 14 -43 17 -43 8 0 40
67 40 83 0 7 6 21 13 31 13 18 15 17 54 -7 153 -97 132 -335 -30 -342 -66 -3
-67 -3 -67 -33 0 -15 -5 -33 -11 -39 -7 -7 -6 -14 4 -24 7 -8 12 -20 9 -27 -2
-6 3 -12 12 -12 9 0 16 -6 16 -13 0 -20 -22 -37 -47 -37 -26 0 -28 -3 -11 -30
17 -27 0 -42 -41 -34 l-33 7 7 63 c4 40 3 64 -3 64 -5 0 -12 -7 -16 -15 -3 -8
-14 -15 -24 -15 -28 0 -52 -32 -45 -58 3 -15 1 -22 -8 -22 -8 0 -1 -10 14 -23
20 -16 29 -33 32 -62 4 -42 -10 -61 -32 -43 -15 12 -17 4 -4 -21 20 -36 -46
-131 -91 -131 -23 0 -28 4 -28 25 0 23 -2 24 -20 15 -11 -6 -25 -8 -32 -4 -7
5 -9 -4 -4 -29 5 -28 3 -38 -11 -45 -11 -7 -18 -24 -19 -50 -2 -44 -36 -92
-66 -92 -10 0 -18 -3 -18 -8 0 -4 -23 -7 -50 -7 -40 0 -49 3 -44 15 17 44 16
68 -3 74 -10 3 -19 15 -20 26 -1 11 2 18 7 15 13 -8 20 24 10 50 -5 14 -11 25
-14 25 -2 0 -18 -12 -34 -27 -24 -20 -30 -32 -26 -53 8 -39 -23 -74 -59 -65
-22 6 -27 13 -27 37 0 17 -4 27 -10 23 -6 -3 -10 1 -10 9 0 14 -3 14 -20 4
-21 -14 -27 -43 -10 -53 6 -3 10 1 10 9 0 9 4 16 9 16 5 0 9 -11 9 -25 0 -30
-11 -32 -38 -5 -19 19 -22 19 -50 5 -37 -19 -60 -19 -60 0 0 8 -5 15 -11 15
-5 0 -8 4 -4 9 3 5 1 13 -5 16 -6 4 -8 21 -4 41 5 30 4 34 -15 34 -12 0 -21 6
-21 15 0 8 4 15 10 15 15 0 35 43 21 48 -16 5 -14 37 4 52 22 18 19 50 -4 50
-11 0 -21 -3 -23 -8 -1 -4 -16 -17 -32 -30 -28 -21 -30 -22 -55 -5 -14 9 -48
18 -74 19 -41 1 -54 7 -88 40 -27 26 -37 44 -33 56 3 10 1 18 -5 18 -5 0 -13
16 -17 35 -5 27 0 44 22 82 36 58 112 133 137 133 31 0 13 25 -22 30 -17 3
-31 7 -29 10 1 3 -9 17 -22 33 -17 19 -33 27 -57 27 -19 0 -52 9 -74 19 l-40
20 2 -220 c1 -167 -2 -223 -12 -235 -10 -13 -10 -17 2 -25 8 -5 20 -9 27 -9 6
0 12 -12 12 -28 0 -15 5 -33 11 -39 8 -8 6 -20 -6 -42 -9 -18 -14 -40 -11 -49
7 -22 -46 -47 -91 -43 -32 2 -44 -11 -23 -24 15 -9 12 -21 -14 -52 -13 -15
-27 -43 -30 -61 -6 -23 -13 -32 -27 -32 -17 0 -18 3 -8 21 8 15 8 24 0 32 -8
8 -11 4 -11 -14 0 -14 -3 -28 -6 -32 -9 -8 -35 4 -29 13 3 5 -2 15 -11 24 -16
16 -10 41 7 31 5 -4 9 -1 9 5 0 6 11 22 25 36 14 14 23 30 19 35 -8 13 -34 -8
-34 -27 0 -18 -15 -18 -45 2 -14 9 -31 14 -39 11 -8 -3 -20 2 -28 11 -11 15
-11 16 3 4 14 -10 18 -10 23 4 3 8 6 25 6 36 0 17 3 18 15 8 8 -7 15 -21 15
-32 0 -32 30 -34 55 -2 13 16 21 33 18 37 -3 4 -2 15 1 23 4 12 10 12 26 4 15
-8 27 -7 51 5 25 14 30 21 27 48 -2 24 -8 33 -25 35 -20 3 -28 17 -21 40 1 4
8 6 15 4 12 -3 16 7 11 26 -1 4 -9 6 -16 4 -32 -7 -40 17 -35 101 6 85 16 105
40 81 8 -8 19 -14 24 -14 6 0 8 -8 4 -19 -3 -10 1 -24 10 -31 17 -14 20 -40 5
-40 -5 0 -10 -4 -10 -9 0 -4 13 -8 30 -7 l30 1 0 208 c0 195 -1 210 -21 236
-30 41 -36 102 -13 140 10 17 22 31 26 31 4 0 9 19 10 43 1 41 1 41 5 6 l4
-36 44 10 c37 8 45 15 50 38 6 28 -17 93 -38 106 -23 14 -55 12 -53 -4 1 -22
-48 -35 -71 -18 -12 9 -17 25 -17 53 1 33 -3 42 -27 56 -27 16 -29 16 -39 -3
-12 -23 -13 -31 -2 -30 16 3 23 -2 17 -11 -5 -8 -11 -7 -21 1 -11 9 -18 8 -29
-1 -11 -10 -19 -10 -27 -2 -6 6 -16 8 -23 6 -17 -7 -28 12 -27 47 1 24 -4 30
-26 35 -15 3 -36 9 -47 14 -16 7 -16 9 -4 9 19 1 33 28 19 36 -15 9 -12 45 3
39 10 -3 12 5 9 30 -4 31 -6 34 -23 23 -25 -15 -33 -38 -17 -48 10 -7 10 -11
-1 -21 -11 -10 -14 -11 -18 0 -3 7 -11 18 -18 26 -8 8 -10 18 -5 26 13 21 2
30 -23 21 -19 -7 -22 -5 -23 16 -2 22 -1 23 15 9 10 -9 21 -13 24 -10 4 4 13
2 20 -4 21 -18 59 14 57 47 -3 43 -1 51 15 45 9 -4 15 0 15 10 0 10 -6 14 -17
10 -16 -5 -16 -5 -1 5 17 11 16 37 -4 78 l-10 21 -23 -26 c-27 -31 -42 -14
-17 19 24 32 26 69 4 69 -9 1 -28 7 -42 15 l-25 14 28 1 c30 0 34 8 15 30 -10
11 -9 11 7 0 11 -8 26 -21 33 -28 8 -7 18 -10 23 -6 5 3 -2 15 -17 27 -15 11
-40 41 -55 66 -16 25 -29 40 -29 33 0 -7 -6 -12 -14 -12 -19 0 -27 -25 -13
-39 8 -8 9 -14 1 -19 -15 -10 -25 -42 -17 -55 13 -21 9 -58 -9 -74 -11 -10
-18 -12 -18 -5 0 7 5 12 10 12 6 0 10 12 10 27 0 27 0 27 -40 -16 -22 -23 -40
-51 -40 -61 0 -12 -12 -22 -35 -30 -20 -6 -35 -17 -34 -23 3 -16 -11 -48 -30
-70 -14 -17 -14 -20 2 -32 9 -7 15 -19 12 -27 -4 -9 1 -18 10 -22 28 -10 6
-26 -38 -26 -66 0 -77 -16 -49 -67 14 -25 11 -28 -42 -37 -24 -5 -52 -20 -74
-42 -20 -19 -43 -33 -52 -32 -9 2 -28 -5 -43 -15 -15 -10 -32 -15 -37 -12 -5
3 -12 0 -15 -6 -4 -5 -13 -8 -20 -6 -6 3 -25 -6 -40 -19 -15 -13 -38 -24 -50
-24 -27 0 -52 -25 -35 -35 19 -12 1 -22 -49 -29 -48 -6 -131 -55 -131 -76 0
-5 -19 -23 -42 -40 l-41 -30 -31 23 c-50 38 -60 42 -53 25 3 -9 -3 -24 -14
-34 -10 -9 -19 -27 -19 -40 0 -39 -11 -54 -39 -54 -74 1 -171 64 -191 126 -18
54 -7 120 24 153 30 31 32 41 11 41 -17 0 -20 21 -6 36 5 5 13 26 17 47 6 38
6 39 -22 37 -43 -3 -51 -1 -34 10 13 9 13 10 0 10 -20 0 -24 55 -5 70 25 21
18 40 -14 40 -27 0 -30 3 -36 50 -4 28 -11 47 -16 44 -6 -3 -17 -3 -26 0 -12
5 -13 9 -3 21 10 12 10 15 -1 15 -8 0 -6 5 6 14 11 8 16 19 12 30 -7 18 -42
22 -52 6 -4 -6 -11 -8 -16 -5 -15 10 -10 42 7 49 12 5 13 10 6 19 -20 23 9
103 53 150 29 30 45 35 45 12 0 -17 25 -20 35 -5 3 6 -1 10 -10 10 -11 0 -15
5 -11 15 3 8 1 15 -4 15 -15 0 -23 42 -9 50 7 5 12 28 12 54 0 25 4 46 8 46 5
0 6 6 3 14 -3 7 2 16 11 20 10 3 15 12 11 21 -9 24 44 32 61 10 15 -21 18 -69
4 -60 -5 3 -13 0 -16 -6 -12 -18 3 -22 24 -7 12 8 18 18 14 21 -3 4 1 7 10 7
10 0 17 4 17 8 0 4 15 16 33 27 24 14 29 15 19 3 -10 -13 -10 -17 4 -22 12 -4
14 -13 9 -36 -7 -34 10 -42 20 -10 3 11 11 20 16 20 6 0 35 24 65 54 29 30 63
57 74 61 14 5 20 15 20 37 0 22 4 29 15 25 22 -9 27 9 12 45 -25 57 -98 111
-128 93 -6 -4 4 -14 22 -23 22 -12 37 -29 45 -55 13 -36 12 -38 -11 -47 -14
-5 -25 -14 -25 -20 0 -16 -30 -12 -37 5 -3 9 3 23 13 31 16 13 17 15 2 10 -10
-3 -20 -1 -23 4 -3 5 -11 7 -18 5 -16 -6 -48 50 -36 62 5 5 -3 21 -21 38 -26
25 -30 36 -30 80 0 46 3 54 32 75 35 26 118 34 139 13 6 -6 17 -9 24 -6 21 7
70 -23 129 -80 54 -53 54 -54 65 -30 9 19 7 29 -5 49 -20 29 -27 101 -12 110
6 4 -4 15 -23 25 -43 23 -49 23 -49 0 0 -17 -2 -17 -45 -3 -25 8 -45 20 -45
27 0 6 -9 20 -20 30 -32 29 -34 53 -8 80 13 14 28 25 34 25 11 0 28 28 26 41
-1 3 11 12 26 19 15 6 38 17 52 24 14 6 29 22 35 34 5 12 17 22 25 22 22 0 61
30 55 41 -4 5 5 9 19 9 14 0 40 9 58 20 l33 20 -30 -5 c-34 -6 -61 7 -51 24
11 18 26 13 19 -6 -4 -11 9 -4 33 17 21 19 41 36 43 38 2 1 2 5 -2 8 -3 3 -16
-1 -29 -10 -27 -19 -38 -20 -38 -3 0 19 56 70 72 65 7 -3 23 -1 36 3 25 9 28
4 9 -15 -7 -7 -18 -11 -25 -8 -15 5 -16 -14 -2 -23 6 -4 16 -2 23 3 7 5 30 15
52 22 48 15 72 34 27 21 -17 -5 -37 -13 -44 -17 -7 -4 -4 2 6 14 16 19 17 22
3 22 -9 0 -19 5 -23 11 -5 8 0 10 17 6 19 -5 27 -1 34 16 6 12 20 23 33 25 12
2 27 12 32 23 6 10 20 19 30 19 11 0 29 9 40 20 11 11 26 17 34 14 9 -3 17 3
21 18 11 34 26 39 47 15 14 -16 18 -17 15 -5 -4 12 7 21 41 37 55 24 52 23 52
13z m1810 -241 c0 -5 18 -31 40 -57 22 -27 40 -55 40 -62 0 -8 8 -26 18 -40
10 -15 19 -45 21 -66 4 -50 15 -79 45 -119 27 -36 66 -111 66 -127 0 -5 -10
-10 -22 -10 -13 0 -30 -5 -38 -10 -13 -8 -12 -10 4 -10 13 0 17 -5 13 -20 -4
-15 0 -20 15 -20 10 0 16 -4 13 -10 -11 -17 17 -11 30 7 8 11 14 13 19 5 4 -7
2 -12 -3 -12 -17 0 -13 -37 5 -44 8 -3 12 -10 9 -16 -3 -5 3 -10 15 -10 17 0
20 -4 15 -21 -5 -14 -3 -19 3 -15 6 4 16 -2 21 -12 15 -28 -8 -74 -33 -66 -10
3 -33 6 -51 6 -25 0 -32 4 -28 14 3 9 -1 14 -12 14 -22 0 -48 27 -39 42 5 8 2
9 -12 4 -34 -13 -39 -11 -39 17 1 31 -3 33 -32 12 -27 -19 -93 -29 -136 -21
-18 3 -50 22 -71 41 -21 19 -35 27 -31 17 24 -63 21 -70 -46 -101 -72 -33
-145 -55 -158 -47 -14 9 -72 -24 -64 -37 5 -8 8 -8 11 1 2 8 12 2 25 -15 12
-15 20 -29 19 -32 -2 -2 1 -7 8 -11 7 -5 8 -14 1 -33 -12 -32 8 -77 45 -102
15 -9 23 -12 20 -6 -10 16 10 13 24 -3 6 -8 10 -25 9 -38 -2 -13 0 -28 4 -35
5 -7 -1 -21 -13 -33 -23 -23 -26 -50 -7 -82 14 -26 39 -48 47 -43 3 2 24 -7
45 -20 22 -13 60 -35 85 -50 46 -26 56 -44 80 -134 5 -19 15 -38 22 -43 10 -7
10 -11 1 -15 -9 -3 -6 -16 12 -47 30 -51 30 -52 5 -59 -13 -3 -20 -14 -21 -29
0 -23 0 -23 -9 -1 -7 18 -18 22 -72 25 -35 2 -66 -1 -69 -6 -8 -11 -32 31 -24
43 3 5 -1 12 -7 14 -10 4 -10 8 1 16 12 8 10 12 -12 22 -15 7 -27 20 -27 31 0
11 -11 23 -26 28 -19 7 -25 16 -22 33 2 12 10 22 18 22 8 0 15 7 15 15 0 17
-49 22 -51 5 -4 -25 -17 -55 -25 -55 -9 0 -13 22 -10 48 1 6 -5 12 -13 12 -8
0 -20 8 -25 18 -9 15 -10 15 -11 -5 0 -29 -13 -35 -36 -18 -10 8 -26 15 -35
15 -19 0 -94 68 -102 93 -4 9 -13 17 -22 17 -8 0 -15 7 -15 16 0 8 5 12 11 8
8 -4 9 1 4 17 -4 13 -11 25 -15 27 -13 5 -1 70 17 91 9 11 23 17 32 14 11 -3
12 -2 4 4 -9 7 -5 17 17 42 17 18 30 34 30 37 0 3 -16 4 -35 2 -19 -1 -35 -6
-35 -11 0 -5 -13 -7 -30 -3 -22 4 -30 2 -30 -9 0 -8 -4 -15 -10 -15 -5 0 -10
-16 -10 -36 0 -21 -4 -33 -10 -29 -5 3 -10 15 -10 26 0 11 -4 18 -9 15 -16
-10 -20 21 -5 42 13 19 11 24 -30 66 -44 46 -84 62 -72 30 3 -9 6 -23 7 -32 0
-11 2 -12 6 -4 2 6 9 10 14 7 5 -4 3 -12 -4 -20 -10 -11 -15 -11 -29 2 -9 8
-14 21 -12 28 4 9 -5 13 -29 12 -23 -1 -33 -5 -30 -13 2 -7 0 -15 -6 -19 -14
-8 -53 4 -46 15 9 14 -14 60 -30 60 -15 0 -21 25 -7 33 9 5 -13 -1 -33 -9 -25
-10 -17 13 13 37 26 21 23 22 -27 2 -11 -5 -11 -2 -2 15 10 18 9 21 -4 16 -21
-8 -19 13 3 25 9 6 13 11 9 11 -4 0 -19 -7 -32 -16 -13 -9 -29 -13 -35 -9 -5
3 -10 2 -10 -2 0 -5 -13 -14 -30 -20 -28 -10 -30 -10 -30 12 0 25 18 34 85 40
140 13 175 18 175 26 0 5 7 9 15 9 8 0 15 5 15 10 0 7 -6 7 -19 1 -10 -6 -21
-8 -24 -4 -4 3 -19 7 -36 9 -16 2 -35 5 -43 6 -7 2 -12 -2 -11 -9 2 -7 -4 -10
-12 -7 -20 8 -19 30 1 38 8 3 12 10 9 16 -3 6 4 14 17 19 21 9 21 10 3 10 -11
1 -35 -8 -52 -19 -27 -16 -33 -17 -33 -5 0 8 5 15 11 15 8 0 8 4 1 13 -13 15
6 107 24 114 7 3 10 11 7 19 -3 8 6 25 22 38 24 20 26 26 15 45 -6 13 -18 20
-25 17 -8 -3 -17 -1 -20 4 -8 13 38 13 51 0 7 -7 15 -2 24 15 7 14 17 25 22
25 4 0 8 5 8 10 0 12 37 50 49 50 5 0 12 8 17 18 8 20 8 18 18 57 11 48 39 75
74 72 16 -1 28 -6 24 -11 -3 -5 3 -6 12 -3 12 5 38 -6 79 -33 46 -31 62 -38
69 -28 5 8 6 1 2 -16 -5 -22 -4 -27 6 -21 13 8 11 -20 -5 -57 -4 -11 -3 -18 4
-18 5 0 15 18 21 39 6 22 23 53 39 70 30 32 57 42 48 17 -3 -8 1 -20 9 -26 8
-7 14 -9 14 -4 0 5 4 3 9 -5 13 -20 41 -6 42 21 0 13 3 17 6 11 2 -7 9 -13 15
-13 6 0 7 7 4 16 -4 10 1 22 11 30 17 13 17 13 -2 14 -14 0 -16 3 -8 11 8 8
17 7 34 -5 22 -14 101 -21 82 -7 -4 3 -9 15 -11 26 -2 12 0 16 5 9 4 -6 19
-10 33 -8 14 1 32 3 40 3 13 1 13 2 0 11 -11 7 -8 10 16 10 21 0 37 7 48 23
10 14 14 16 10 5 -4 -10 -1 -18 5 -18 10 0 16 22 11 45 -2 10 28 35 42 35 4 0
8 -4 8 -9z m-520 -1341 c0 -24 25 -37 43 -22 23 18 87 -23 87 -57 0 -18 4 -22
20 -18 16 4 20 0 20 -18 0 -28 -30 -38 -71 -23 -37 13 -44 7 -32 -29 7 -20 17
-28 36 -30 14 -1 35 -11 47 -23 22 -22 22 -23 4 -56 -10 -19 -27 -37 -37 -40
-10 -3 -25 -21 -33 -40 -8 -19 -19 -32 -24 -29 -5 3 -12 1 -15 -5 -9 -14 -35
6 -35 26 0 22 -14 17 -46 -17 l-29 -31 30 6 c17 3 37 2 45 -4 10 -6 11 -10 3
-10 -7 0 -13 -5 -13 -11 0 -6 6 -9 13 -6 6 2 18 -2 26 -11 13 -13 10 -14 -20
-8 -19 4 -58 9 -86 12 -29 4 -50 10 -47 15 3 5 0 9 -5 9 -6 0 -9 -10 -7 -22 3
-20 8 -23 45 -20 48 4 81 -17 81 -53 0 -34 -99 -74 -132 -53 -9 5 -6 8 10 8
12 0 22 4 22 9 0 5 8 12 18 15 9 2 -1 4 -23 4 -76 -2 -88 1 -81 18 3 9 2 12
-5 9 -6 -4 -13 3 -16 15 -4 16 -8 18 -14 8 -6 -9 -9 -7 -9 8 0 13 13 28 40 43
22 12 40 30 40 39 0 9 7 30 15 46 11 20 12 32 5 41 -8 9 -7 12 2 11 22 -2 22
18 -1 30 -20 10 -20 12 -4 27 10 8 30 20 46 26 15 6 27 16 27 23 0 7 9 24 20
38 11 14 20 35 20 48 0 12 5 22 12 22 8 0 5 7 -5 18 -17 16 -19 16 -34 -3
l-16 -20 8 20 c4 11 10 29 13 40 12 41 42 59 42 25z m266 -260 c12 0 24 -5 26
-12 2 -6 18 -11 36 -10 17 0 34 -4 37 -9 4 -5 17 -9 31 -9 19 0 29 -8 40 -36
8 -20 13 -43 10 -50 -8 -22 -36 -29 -58 -15 -23 14 -23 14 -33 -18 -6 -18 -4
-22 6 -16 8 5 11 4 6 -1 -5 -5 -12 -9 -15 -9 -4 -1 -21 -9 -39 -18 -41 -22
-55 -21 -83 3 -13 11 -27 20 -31 20 -12 0 -22 -46 -14 -59 3 -6 1 -11 -4 -11
-6 0 -11 5 -11 11 0 14 -25 39 -39 39 -6 0 -11 14 -11 30 0 31 6 36 29 21 20
-13 41 -2 41 21 0 14 -6 18 -22 16 -19 -2 -24 2 -26 25 -3 22 3 31 27 45 17 9
31 22 31 29 0 7 7 10 17 6 13 -5 15 -3 9 13 -6 15 -5 17 5 7 7 -7 23 -13 35
-13z m451 -35 c17 -7 31 -19 30 -27 0 -7 1 -22 1 -32 2 -18 3 -18 20 -3 17 16
22 16 65 1 52 -18 63 -44 27 -66 -27 -17 -26 -42 1 -35 13 3 19 1 16 -6 -2 -7
0 -20 5 -29 5 -10 5 -18 0 -18 -4 0 -8 -22 -8 -49 0 -28 3 -48 8 -45 4 3 9 -1
10 -8 0 -7 2 -20 3 -28 1 -8 -3 -21 -8 -27 -6 -8 -6 -13 0 -13 6 0 8 -11 5
-25 -5 -30 -10 -30 -42 -8 -13 9 -34 17 -47 18 -31 1 -54 25 -47 51 5 19 11
20 56 16 39 -4 49 -2 43 8 -4 7 -18 10 -36 6 -16 -3 -29 -1 -29 4 0 6 -5 9
-12 7 -7 -1 -13 8 -14 21 -1 12 -5 26 -9 30 -5 4 -5 -1 -2 -10 9 -24 -5 -23
-21 2 -11 19 -10 20 21 20 26 0 36 6 45 25 7 14 20 29 29 33 14 5 12 8 -12 13
l-30 6 25 11 c18 8 20 11 7 11 -13 1 -16 7 -11 25 4 15 1 25 -9 29 -16 6 -33
-36 -22 -53 4 -6 -2 -10 -12 -11 -11 0 -13 -3 -5 -6 6 -2 10 -9 6 -14 -3 -5 0
-9 5 -9 6 0 11 -4 11 -10 0 -5 -10 -10 -23 -10 -13 0 -28 -5 -34 -11 -7 -7
-19 -8 -30 -4 -10 5 -21 7 -25 7 -5 -1 -7 4 -5 11 1 7 -7 11 -23 9 -16 -1 -30
5 -38 18 -9 14 -9 20 -1 20 22 0 -36 37 -68 44 -18 4 -36 12 -39 18 -4 6 1 8
15 3 19 -6 20 -4 12 18 -8 20 -5 29 17 50 15 13 32 23 38 20 6 -2 17 3 24 12
14 17 59 13 117 -10z m-173 -173 c16 -7 26 -15 23 -18 -3 -3 6 -17 20 -32 14
-15 29 -37 34 -50 5 -12 19 -26 33 -31 13 -5 26 -21 30 -35 3 -14 11 -26 16
-26 21 0 9 -20 -20 -35 -29 -15 -32 -15 -66 12 -32 24 -34 28 -19 39 12 9 13
14 4 19 -6 4 -15 2 -19 -5 -10 -16 -38 -6 -46 15 -9 22 3 30 21 15 26 -22 26
-5 0 31 -30 40 -16 52 21 18 30 -28 31 -18 3 21 -16 20 -30 28 -50 28 -35 -1
-35 -2 -44 42 -7 33 -7 34 11 19 11 -8 32 -21 48 -27z m-2057 -177 c2 -6 -30
-23 -71 -38 -41 -15 -85 -37 -98 -48 l-23 -20 54 6 c30 3 67 15 82 26 38 27
54 24 32 -5 -31 -42 -178 -73 -237 -50 -45 17 -6 46 149 110 80 34 105 38 112
19z m304 -14 c61 4 64 3 62 -18 -2 -16 4 -23 20 -25 17 -2 23 -11 25 -37 3
-25 6 -31 12 -21 11 18 22 8 14 -13 -3 -9 -11 -14 -18 -11 -7 3 -18 -1 -25 -9
-9 -12 -7 -16 9 -20 27 -7 25 -29 -5 -65 -36 -43 -34 -63 5 -42 15 8 17 6 13
-10 -6 -24 4 -26 29 -3 34 30 21 -18 -17 -66 -19 -24 -35 -45 -35 -46 0 -2 8
-2 17 -1 10 0 18 -5 18 -11 0 -7 10 -20 23 -29 18 -12 21 -19 11 -30 -6 -8
-23 -14 -36 -14 -19 0 -24 -4 -21 -18 6 -20 -27 -28 -38 -10 -4 7 -2 8 4 4 7
-4 12 -1 12 7 0 22 -75 38 -97 21 -10 -7 -13 -14 -7 -14 7 0 9 -11 6 -26 -3
-18 -15 -31 -37 -40 -18 -7 -35 -20 -38 -29 -10 -23 -26 -18 -40 13 -11 26
-25 42 -38 42 -3 0 -18 -27 -34 -61 -16 -33 -39 -66 -50 -71 -18 -10 -19 -10
-6 5 11 14 11 18 0 22 -10 4 -15 25 -16 66 -1 34 -6 66 -12 72 -6 6 -11 23
-11 37 0 35 -51 67 -73 46 -25 -25 -89 -66 -103 -66 -19 0 -17 23 7 83 41 102
49 117 85 157 l36 40 -32 -7 c-30 -5 -33 -4 -28 14 3 12 2 27 -3 34 -11 19 0
32 16 19 19 -16 48 2 74 45 11 19 25 35 31 35 16 0 12 -31 -7 -53 -13 -14 3
-9 52 17 38 20 73 42 77 49 6 9 8 9 8 0 0 -9 8 -9 30 -2 19 7 30 18 30 29 0
20 22 32 31 18 4 -6 35 -8 70 -7z m-625 -610 c3 5 18 9 33 9 23 0 32 -7 45
-34 9 -19 16 -38 16 -43 1 -16 38 -53 54 -53 18 0 21 21 5 37 -9 9 -3 63 8 63
2 0 14 -5 25 -11 15 -8 22 -8 28 1 4 7 13 9 19 6 6 -4 9 -12 6 -17 -4 -5 2 -9
12 -9 10 0 23 10 28 23 6 12 15 21 20 20 15 -3 19 -45 5 -53 -7 -4 6 -6 28 -5
33 2 39 -1 34 -14 -5 -14 -4 -14 13 -1 17 14 18 13 12 -2 -4 -12 2 -26 19 -43
32 -32 36 -31 29 3 -6 26 -6 26 9 8 9 -11 16 -24 16 -28 0 -18 56 -75 93 -94
20 -11 32 -12 47 -4 26 14 25 24 -4 38 -14 6 -30 20 -36 32 -10 19 -9 20 14
14 24 -6 26 -4 26 29 0 28 6 40 29 56 38 27 49 26 44 -4 -4 -19 0 -27 21 -36
23 -11 29 -9 52 12 20 19 24 30 20 53 -5 23 -3 27 10 22 9 -3 19 -6 23 -6 5 0
8 -17 7 -37 -1 -33 2 -38 22 -37 12 0 22 -3 22 -8 0 -4 16 -8 35 -8 37 0 44
-10 21 -30 -20 -15 -9 -42 14 -35 13 4 19 -1 23 -22 3 -16 9 -36 12 -45 6 -15
2 -18 -22 -18 -16 0 -33 -3 -36 -7 -4 -3 -35 -5 -70 -4 -53 2 -60 0 -44 -11
24 -18 26 -87 4 -100 -10 -5 -17 -16 -17 -23 0 -8 -6 -15 -12 -15 -7 -1 -1 -7
13 -15 41 -22 51 -76 16 -83 -18 -4 -24 23 -7 33 18 11 11 35 -10 35 -12 0
-30 9 -42 20 -26 24 -38 25 -38 4 0 -10 6 -14 15 -10 18 7 18 6 1 -34 -9 -23
-16 -29 -21 -19 -5 7 -4 14 3 17 23 7 1 22 -24 16 -19 -5 -26 -1 -32 16 -8 21
-9 21 -25 6 -30 -30 -87 -30 -87 0 0 8 -5 14 -11 14 -6 0 -9 -7 -5 -15 4 -13
2 -14 -14 -5 -18 10 -20 7 -20 -21 l0 -31 -19 23 c-10 13 -16 29 -14 36 3 9
-4 13 -22 13 -22 0 -26 -3 -20 -17 4 -12 3 -15 -4 -8 -15 16 -1 65 25 82 35
22 29 36 -6 18 -17 -9 -35 -13 -40 -10 -12 7 -13 55 -2 55 5 0 6 15 4 33 -5
31 -4 32 15 15 11 -10 23 -18 26 -18 12 0 8 27 -6 38 -18 15 -57 3 -57 -17 0
-9 -6 -25 -14 -36 -7 -11 -14 -33 -14 -48 0 -15 -2 -30 -5 -34 -11 -11 -82 25
-93 47 -11 21 -12 21 -22 4 -10 -18 -12 -18 -47 -1 -20 9 -33 12 -29 6 6 -10
-11 -28 -27 -29 -13 0 -18 45 -6 53 8 6 7 7 -5 4 -17 -6 -51 24 -46 39 4 11
-12 14 -31 6 -7 -3 -17 1 -22 9 -13 20 -7 69 8 69 7 0 13 6 13 13 0 6 8 2 18
-10 22 -29 39 -18 43 27 4 32 2 35 -26 40 -16 3 -45 13 -63 23 -26 14 -37 16
-48 6 -17 -14 -16 -15 -18 37 l-2 41 38 -7 c21 -4 41 -3 44 1z"/>
<path d="M1944 3468 c-16 -12 -31 -25 -34 -29 -3 -3 -22 -9 -42 -13 -21 -4
-38 -12 -38 -19 0 -9 -2 -9 -8 -1 -5 8 -20 3 -47 -15 -22 -14 -60 -33 -85 -42
-25 -9 -44 -21 -43 -28 2 -6 -3 -11 -10 -11 -21 0 -40 -45 -33 -74 9 -36 28
-33 24 4 -2 26 2 32 37 50 21 11 45 20 52 20 8 0 16 6 19 13 3 8 20 20 39 27
19 7 31 18 28 23 -3 6 -1 7 5 3 6 -4 44 4 84 17 40 14 88 28 106 32 37 8 34
25 -5 25 -20 0 -24 4 -20 20 6 25 6 25 -29 -2z"/>
<path d="M997 2304 c-12 -13 -8 -22 14 -29 25 -8 41 -45 26 -63 -7 -9 -6 -20
2 -38 17 -39 73 -104 88 -104 7 0 13 -4 13 -10 0 -5 -9 -10 -20 -10 -12 0 -20
-7 -20 -17 -1 -25 -26 -56 -39 -48 -6 3 -11 -1 -11 -9 0 -22 23 -20 45 4 19
21 50 26 60 10 4 -6 18 -1 35 12 27 20 29 23 14 39 -30 33 -11 78 63 147 37
34 77 65 90 68 18 5 63 54 49 54 -10 0 -125 -71 -141 -86 -8 -9 -27 -17 -41
-19 -15 -1 -29 -8 -33 -14 -11 -17 -57 28 -66 64 -3 16 -11 35 -17 42 -12 15
-38 6 -38 -13 0 -26 -52 -14 -61 14 -3 7 -8 10 -12 6z"/>
<path d="M2651 2165 c-13 -14 -27 -25 -32 -25 -5 0 -9 -7 -9 -15 0 -8 5 -15
11 -15 6 0 8 -9 4 -20 -5 -17 -1 -21 25 -27 29 -5 31 -8 26 -38 -5 -22 -2 -36
9 -45 8 -7 15 -19 15 -26 0 -12 6 -11 38 2 20 9 43 18 50 21 6 3 12 -2 12 -10
0 -14 5 -14 33 -5 37 13 49 27 42 48 -4 11 -1 10 9 -2 16 -22 27 -23 20 -3 -4
9 0 15 10 15 9 0 16 5 16 10 0 6 -16 10 -35 10 -26 0 -35 4 -36 18 0 13 -2 14
-6 2 -3 -8 -13 -24 -22 -35 -15 -18 -15 -19 1 -7 12 9 18 10 23 2 10 -15 4
-19 -36 -24 -21 -3 -40 1 -51 11 -17 16 -15 39 3 28 5 -3 6 1 2 10 -4 12 -8
13 -13 5 -5 -7 -9 -3 -13 11 -7 24 9 42 30 34 7 -2 10 2 6 10 -3 8 -15 14 -26
13 -12 0 -28 1 -36 3 -8 2 -20 -6 -26 -19 -7 -12 -15 -26 -19 -29 -10 -10 5
29 17 45 5 7 7 16 3 20 -4 4 -13 -1 -20 -11 -12 -16 -36 -24 -36 -11 0 20 76
60 82 42 2 -6 9 -3 17 6 12 14 12 16 -3 10 -9 -3 -16 -1 -16 5 0 20 -45 11
-69 -14z"/>
<path d="M3757 1068 c-14 -10 -24 -25 -21 -32 3 -8 0 -17 -6 -21 -14 -8 -5
-37 26 -82 13 -20 24 -44 24 -54 0 -17 25 -49 38 -49 9 0 44 59 54 90 4 14 2
48 -4 77 -10 41 -17 53 -35 58 -13 3 -23 11 -23 19 0 18 -23 16 -53 -6z"/>
<path d="M3522 1007 c-22 -10 -29 -31 -13 -41 4 -3 6 -18 4 -33 -2 -16 -5 -44
-7 -64 -2 -20 -6 -41 -10 -48 -4 -6 -1 -11 9 -11 9 0 28 -9 42 -20 30 -24 47
-26 39 -5 -3 9 0 15 8 15 8 0 17 11 20 24 3 14 13 31 21 39 12 13 12 17 -5 32
-19 17 -19 18 2 34 20 17 20 19 4 43 -20 31 -81 49 -114 35z"/>
</g>
</svg>
